<svg xmlns="http://www.w3.org/2000/svg" width="90.465" height="58.792" viewBox="0 0 90.465 58.792"><defs><style>.a{fill:#11362a;fill-rule:evenodd;}</style></defs><path class="a" d="M89.851,27.9a.688.688,0,0,1,0-.9.942.942,0,0,0,.249-1.04q-.258-.637-.475-1.289a3.318,3.318,0,0,1-.226-.9c.023-.158.294-.317.452-.5a1.217,1.217,0,0,0,.226-.452,1.267,1.267,0,0,0-.452-1.447,1.519,1.519,0,0,1-.43-2.284,2.31,2.31,0,0,0,.407-2.035,7.078,7.078,0,0,1-.452-2.329c0-.9-.678-1.2-1.47-.927a2.4,2.4,0,0,0-.452.271l-1.131.724a1.923,1.923,0,0,1-.136-1.4,1.1,1.1,0,0,0-.588-1.379c.226-.769.023-1.131-.9-1.764a2.447,2.447,0,0,0-2.1,0,1.837,1.837,0,0,0-2.623-.678.461.461,0,0,1-.452-.045,1.538,1.538,0,0,1-.362-.565A1.435,1.435,0,0,0,78.114,8a.5.5,0,0,1-.226-.226,1.359,1.359,0,0,0-1.741-.882.833.833,0,0,1-.791-.136,1.332,1.332,0,0,0-2.058.226.6.6,0,0,1-.678.226,1.094,1.094,0,0,0-1.357.837c-.113.294-.2.611-.339.9a2.428,2.428,0,0,1-1.764,1.493c.113-.52.543-.95.271-1.493-.271-.565-.837-.475-1.357-.588l.181-.226a2.668,2.668,0,0,0,.339-3.347,1.8,1.8,0,0,0-2.6-.407l-.452.384a4.2,4.2,0,0,0-.746-.791,1.937,1.937,0,0,0-2.216.339c-1,.9-.927.927-2.035.475a1.063,1.063,0,0,0-1.334.384l-.226.339c-1.447-.611-1.447-.611-2.329.452-.746-.158-1.153-.249-1.628,1.379a.737.737,0,0,1-.7-.452,1.127,1.127,0,0,0-1.312-.43c-.5.181-.565.633-.633,1l-1.266.09c-.181.023-.339.249-.5.226a1.674,1.674,0,0,0-1.606.95c-.226-.226-.5-.407-.565-.633-.113-.52.045-.678.588-.837.7-.226,1.266-.724.724-1.583a.588.588,0,0,1-.068-.43,1.124,1.124,0,0,0-1.153-1.47c-.362,0-.52-.113-.543-.5a1.854,1.854,0,0,0-.294-.814.579.579,0,0,0-.95-.136c-.249.294-.362.158-.633.023a1.651,1.651,0,0,0-1.085-.181c-.362.09-.226.543-.226.859,0,.136.158.271.181.452l-.068.452c-.09-.09-.249-.158-.317-.249a1.329,1.329,0,0,0-1.809-.769,8.13,8.13,0,0,0-1,.5l-1.266-.633c-.068,0-.09-.09-.113-.158a1.227,1.227,0,0,0-.9-.9c-.136-.023-.339-.09-.362-.181-.136-.452-.52-.588-.859-.769a1.934,1.934,0,0,0-2.827,1.018.816.816,0,0,1-.181.339c-.2.226-.656.226-.678-.045-.158-.746-.678-1.018-1.357-1.2a.535.535,0,0,1-.317-.271A1.058,1.058,0,0,0,31.3.246a1.764,1.764,0,0,1-1.809.5A1.085,1.085,0,0,0,28.7.9a12.088,12.088,0,0,0-1.131,1.018c-.543.543-.543.565-1.244.249a1.459,1.459,0,0,0-1.515,0,1.313,1.313,0,0,1-.791.136c-.543-.068-1.04-.113-1.4.452a.487.487,0,0,1-.724.158,1.366,1.366,0,0,0-1.945.271.765.765,0,0,1-1.018.158A1.916,1.916,0,0,0,17.4,3.231c-.656.136-.791.317-.814.972-.023.249-.113.339-.362.362-.678.023-.9.226-1,.837l-.294-.113a1.266,1.266,0,0,0-1.606.9.647.647,0,0,1-.362.271.915.915,0,0,0-.724,1.221l.158.5c.181.475.068.724-.384.837l-.271.09a1,1,0,0,0-.2,1.583c.791.746.611,1.493-.407,1.854a1.517,1.517,0,0,0-1.063.927c-.271.769-.43.9-1.221.9a1.366,1.366,0,0,0-1.334.656,1.656,1.656,0,0,1-1.538.859,2.013,2.013,0,0,0-1.538.927,1.712,1.712,0,0,0-.023,1.741,1.271,1.271,0,0,1,.023.769,1.8,1.8,0,0,0,.271,1.583c.226.226.045.362-.181.407a3.835,3.835,0,0,1-.5-.09c-.294-.023-.588-.09-.882-.09-.633,0-1.131.452-1.809.384a1.032,1.032,0,0,0-1,1.447l.271.543a.192.192,0,0,1-.068.113c-.746.724-.724,1.04,0,1.809A1.628,1.628,0,0,1,1,27.066c-.113.452-.339.837-.475,1.244a.8.8,0,0,0,.565,1.2l1.085.43a6.5,6.5,0,0,0-.565.746.936.936,0,0,0,.362,1.357A1.131,1.131,0,0,0,3.1,31.974a4.736,4.736,0,0,1,.633-.384c.271-.113.588-.339.9-.045a8.924,8.924,0,0,0-.384.837c-.2.543-.045.859.52,1a3.044,3.044,0,0,0,2.578-.294,3.05,3.05,0,0,1,.791-.317l.068.136a4.683,4.683,0,0,0-.384.543.7.7,0,0,0,.317,1.131,7.145,7.145,0,0,0,1.357.249c.5.068.611.158.475.678a1.5,1.5,0,0,0,.746,1.7l1.4.9a.677.677,0,0,1,.271.294c.317,1.063,1.493,1.153,2.4,1.131.407-.023.9-.113,1.176.068a4.35,4.35,0,0,0,2.42.746,1.02,1.02,0,0,1,.837.52,2.3,2.3,0,0,0,.724.588,1.528,1.528,0,0,0,.837.136c.656-.045,1.312-.158,1.967-.226v.158c0,1.063.2,1.312,1.266,1.493a9.361,9.361,0,0,0,1.379,0c.136.859.271,1.04,1.131,1.221.452.113.927.136,1.4.226.633.068.769.271.678.9v.791a.763.763,0,0,0,1.131.724c.271-.113.452-.113.633.068a2.774,2.774,0,0,1,1.153,2.714,3.472,3.472,0,0,0,.678,2.714l2.035,2.691.317.565q-15.232,1-30.416,2.6H4.053v.565H86.1v-.543l-.2-.045c-.746-.09-15.875-1.538-21.144-1.967l-9.114-.588c-.769,0-1.515-.068-2.374-.09.452-.746.837-1.425,1.289-2.081a6.04,6.04,0,0,1,.859-1c.43-.407.927-.724.95-1.379a.616.616,0,0,1,.136-.271l1.018-1.4c.407-.611.724-1.312,1.176-1.9a6.075,6.075,0,0,1,1.447-1.4c1.357-.9,2.782-1.7,4.184-2.488a6.3,6.3,0,0,1,1.108-.52v.452a.87.87,0,0,0,1.131.927,4.873,4.873,0,0,0,1.4-.633,1,1,0,0,1,.633-.113,2.787,2.787,0,0,0,1.221.045,1.439,1.439,0,0,0,1.2-1.651c1.108-.181,1.334-.543,1.131-1.764.226-.068.5-.09.724-.136.136.7.543,1.131,1.425.791a3.429,3.429,0,0,0,.52.791,2.192,2.192,0,0,0,3.166-.43.787.787,0,0,1,.543-.317,4.429,4.429,0,0,0,2.917-1.809,8.751,8.751,0,0,0,.475-.769,4.285,4.285,0,0,0,.611.271c.588.226.724.136.927-.452a14.616,14.616,0,0,1,.611-1.357.585.585,0,0,1,.859-.271,1.263,1.263,0,0,0,1.538-.158,12.281,12.281,0,0,0,.927-1.266h.52c.746,0,1-.181,1.085-.927a4.856,4.856,0,0,0,0-1.4c-.09-.565-.249-1.131-.384-1.7l.43.158c.927.271,1.244-.045,1.357-.859a3.441,3.441,0,0,0-.543-2.646M44.1,46.356c-.09.52-.158,1.04-.294,1.583a7.541,7.541,0,0,1-.362.9,6.354,6.354,0,0,0-.5,2.8,7.115,7.115,0,0,1-.792,3.55.544.544,0,0,1-.362.271c-1,0-1.99.068-2.962-.023a2.133,2.133,0,0,1-1.04-.633l-2.872-2.623a3.935,3.935,0,0,1-1.244-2.94v-1c0-.95.452-1.56,1.4-1.515a3.646,3.646,0,0,0,1.967-.5,1.1,1.1,0,0,1,1.2.023,1.791,1.791,0,0,0,2.6-1.063c0-.068.068-.113.113-.181.746.475,1.176.452,2.1-.226l1.018,1.2a.63.63,0,0,1,.023.362M57.558,44.14a15.025,15.025,0,0,0-.611,1.379,2.531,2.531,0,0,1-1.289,1.4,1.858,1.858,0,0,0-.882.972,9.762,9.762,0,0,1-1.967,3.279,6.867,6.867,0,0,0-.95,1.515,5.409,5.409,0,0,1-2.691,2.374,2.851,2.851,0,0,1-1.447.339H45.8c-.158-.724-.362-1.4-.452-2.1a9.272,9.272,0,0,1,.724-4.885c.226-.5.384-1.04.633-1.538a5,5,0,0,1,.588-1,1.05,1.05,0,0,1,1.2-.407,15.911,15.911,0,0,0,1.809.317c.678.045.9-.226.9-.9v-.339c0-.2.068-.339.339-.271a6.044,6.044,0,0,0,.9.023c.7,0,.972-.249,1.018-.95a2.722,2.722,0,0,1,.113-.52,1.106,1.106,0,0,0,1.719.136c.271.837.882.814,1.583.633a.837.837,0,0,1,.407,0c.271.09.52.158.271.543" transform="translate(0.004 -0.002)"/></svg>